<?xml version="1.0" ?><!DOCTYPE svg  PUBLIC '-//W3C//DTD SVG 1.1//EN'  'http://www.w3.org/Graphics/SVG/1.1/DTD/svg11.dtd'><svg enable-background="new 0 0 512 512" height="512px" id="Layer_1" version="1.1" viewBox="0 0 512 512" width="512px" xml:space="preserve" xmlns="http://www.w3.org/2000/svg" xmlns:xlink="http://www.w3.org/1999/xlink"><g><path d="M258.328,120.392c45.379,0,90.755-0.012,136.134,0.004c15.02,0.005,22.156,7.221,22.161,22.391   c0.009,65.138,0.009,130.271,0,195.412c-0.005,15.181-7.467,22.693-22.821,22.705c-90.755,0.037-181.511,0.037-272.271,0   c-15.354-0.012-22.806-7.524-22.811-22.715c-0.01-65.137-0.01-130.271,0-195.411c0.004-15.165,7.142-22.378,22.166-22.383   C166.698,120.38,212.515,120.392,258.328,120.392z M257.546,326.619c42.972,0,85.942-0.072,128.914,0.109   c4.569,0.02,5.725-1.164,5.71-5.726c-0.163-55.774-0.181-111.551,0.02-167.327c0.021-4.997-1.37-6.001-6.13-5.992   c-85.725,0.148-171.453,0.146-257.176,0.005c-4.574-0.008-5.725,1.193-5.71,5.736c0.163,55.776,0.182,111.552-0.023,167.328   c-0.02,5.021,1.398,5.998,6.135,5.978C172.037,326.543,214.792,326.619,257.546,326.619z"/><path d="M329.223,406.707c-47.572,0-95.142,0-143.819,0c12.168-12.395,23.656-24.057,35.085-35.777   c1.595-1.634,3.456-1.479,5.4-1.479c21.468,0.005,42.938,0.028,64.406-0.038c2.298-0.005,4.034,0.521,5.768,2.188   c11.549,11.09,23.223,22.055,34.855,33.061C330.351,405.341,329.787,406.024,329.223,406.707z"/><path d="M346.243,200.074c-7.318,0-13.249,5.932-13.249,13.248c0,1.611,0.307,3.151,0.832,4.582l-32.352,29.542   c-1.979-1.184-4.291-1.876-6.764-1.876c-2.799,0-5.391,0.871-7.527,2.351l-32.7-27.071c0.506-1.402,0.793-2.906,0.793-4.481   c0-7.317-5.93-13.248-13.244-13.248c-7.318,0-13.248,5.931-13.248,13.248c0,1.721,0.338,3.361,0.936,4.867l-58.263,46.178   c-2.153-1.512-4.769-2.407-7.595-2.407c-7.319,0-13.249,5.935-13.249,13.249s5.93,13.245,13.249,13.245   c7.313,0,13.242-5.931,13.242-13.245c0-1.447-0.238-2.839-0.667-4.143l0.042,0.059l58.669-46.5c2.01,1.225,4.359,1.943,6.884,1.943   c2.43,0,4.703-0.666,6.661-1.809l33.246,27.525c-0.299,1.112-0.477,2.276-0.477,3.487c0,7.316,5.93,13.246,13.248,13.246   c7.313,0,13.242-5.93,13.242-13.246c0-1.25-0.18-2.458-0.505-3.606l32.894-30.041c1.78,0.888,3.776,1.399,5.9,1.399   c7.313,0,13.249-5.93,13.249-13.247C359.492,206.006,353.557,200.074,346.243,200.074z"/></g></svg>