<?xml version="1.0" ?><svg id="Layer_1" style="enable-background:new 0 0 512 512;" version="1.1" viewBox="0 0 512 512" xml:space="preserve" xmlns="http://www.w3.org/2000/svg" xmlns:xlink="http://www.w3.org/1999/xlink"><style type="text/css">
	.st0{fill:#010101;}
	.st1{fill:#137D78;}
	.st2{fill:#FFFFFB;}
	.st3{fill:#FFFFFF;}
</style><g id="XMLID_51_"><path class="st0" d="M365.5,0h-219c-18.8,0-34,15.2-34,34V478c0,18.8,15.2,34,34,34h219c18.8,0,34-15.2,34-34V34   C399.5,15.2,384.3,0,365.5,0z" id="XMLID_239_"/><path class="st1" d="M140.6,442.5V40.4c0-0.3,0.3-0.6,0.6-0.6h229.6c0.3,0,0.6,0.3,0.6,0.6v402.1   c0,0.3-0.3,0.6-0.6,0.6H141.2C140.9,443.1,140.6,442.8,140.6,442.5z" id="XMLID_238_"/><circle class="st2" cx="256" cy="478.8" id="XMLID_237_" r="24"/><path class="st2" d="M290,16.5h-68c-2,0-3.6,1.6-3.6,3.6v0.7c0,2,1.6,3.6,3.6,3.6h68c2,0,3.6-1.6,3.6-3.6v-0.7   C293.6,18.1,292,16.5,290,16.5z" id="XMLID_236_"/><path class="st3" d="M229,200.3h-28.5l16.8,29.7l-22.4,37.1h28.5l22.4-37.1L229,200.3z M286.9,176.5L242,255.4   l28.9,50.9h30.2l-28.9-50.9l44.9-78.9H286.9L286.9,176.5z" id="XMLID_105_"/></g></svg>